# xmcd
#
# Track frame offsets: 
#        150
#        22867
#        48945
#        75025
#        96592
#        123767
#        145287
#        168515
#        193602
#        216330
#        229787
#
# Disc length: 3342 seconds
#
# Revision: 3
# Processed by: cddbd v1.5.2PL0 Copyright (c) Steve Scherf et al.
# Submitted via: ExactAudioCopy v1.0b1
#
DISCID=890d0c0b
DTITLE=Hilary Stagg - Winter Magic
DYEAR=1995
DGENRE=New Age
TTITLE0=The First Noel
TTITLE1=It Came Upon a Midnight Clear
TTITLE2=O Holy Night
TTITLE3=What Child Is This?
TTITLE4=O Come Emmanuel
TTITLE5=Do You Hear What I Hear
TTITLE6=We Three Kings
TTITLE7=O Come Let Us Adore Him
TTITLE8=Angels We Have Heard on High
TTITLE9=Silver Bells
TTITLE10=Still Still Still - The Holly and the Ivy
EXTD=YEAR: 1995
EXTT0=
EXTT1=
EXTT2=
EXTT3=
EXTT4=
EXTT5=
EXTT6=
EXTT7=
EXTT8=
EXTT9=
EXTT10=
PLAYORDER=
